<svg xmlns="http://www.w3.org/2000/svg" viewBox="0 0 512 512">
  <defs>
    <linearGradient id="grad" x1="0%" y1="0%" x2="100%" y2="100%">
      <stop offset="0%" stop-color="#2563eb" />
      <stop offset="100%" stop-color="#0ea5e9" />
    </linearGradient>
  </defs>
  <rect width="512" height="512" rx="96" ry="96" fill="url(#grad)" />
  <g fill="#f8fafc">
    <path d="M144 176c0-17.673 14.327-32 32-32h160c17.673 0 32 14.327 32 32v160c0 17.673-14.327 32-32 32H176c-17.673 0-32-14.327-32-32V176zm64 32v96h96v-96h-96z" opacity=".9" />
    <path d="M188 176h52v64h-76v-40c0-13.255 10.745-24 24-24z" opacity=".75" />
    <path d="M324 336h-52v-64h76v40c0 13.255-10.745 24-24 24z" opacity=".75" />
  </g>
</svg>
